<svg xmlns="http://www.w3.org/2000/svg" width="1000" height="520" viewBox="0 0 1000 520">
    <defs>
        <marker id="arrow" viewBox="0 0 10 10" refX="9" refY="5" markerWidth="7" markerHeight="7"
                orient="auto-start-reverse">
            <path d="M 0 0 L 10 5 L 0 10 z" fill="#263238"/>
        </marker>

        <style>
            .structure {
            fill: none;
            stroke: #263238;
            stroke-width: 5;
            stroke-linecap: round;
            stroke-linejoin: round;
            }

            .thin {
            fill: none;
            stroke: #263238;
            stroke-width: 3;
            stroke-linecap: round;
            stroke-linejoin: round;
            }

            .label {
            font-family: Arial, Helvetica, sans-serif;
            font-size: 22px;
            fill: #263238;
            }

            .small-label {
            font-family: Arial, Helvetica, sans-serif;
            font-size: 17px;
            fill: #263238;
            }
        </style>
    </defs>

    <g id="dendrites" class="structure">
        <path d="M 245 260 C 195 225, 165 190, 120 150"/>
        <path d="M 120 150 C 95 132, 70 115, 45 92"/>
        <path d="M 120 150 C 95 160, 72 165, 48 172"/>

        <path d="M 245 260 C 190 250, 140 245, 82 230"/>
        <path d="M 82 230 C 58 218, 38 205, 20 188"/>
        <path d="M 82 230 C 55 238, 35 250, 18 265"/>

        <path d="M 245 260 C 195 292, 155 330, 115 380"/>
        <path d="M 115 380 C 92 402, 72 420, 50 444"/>
        <path d="M 115 380 C 88 372, 64 365, 38 358"/>

        <path d="M 270 220 C 250 170, 245 125, 258 70"/>
        <path d="M 258 70 C 250 48, 240 30, 225 15"/>
        <path d="M 258 70 C 285 52, 310 38, 338 25"/>

        <path d="M 295 230 C 330 190, 370 168, 420 150"/>
        <path d="M 420 150 C 446 135, 470 122, 495 105"/>
        <path d="M 420 150 C 450 162, 478 172, 508 182"/>

        <path d="M 290 300 C 320 338, 345 378, 372 430"/>
        <path d="M 372 430 C 390 452, 405 470, 425 492"/>
        <path d="M 372 430 C 345 438, 322 448, 300 462"/>
    </g>

    <g id="soma">
        <path d="M 250 205
				 C 300 172, 365 195, 382 250
				 C 400 308, 350 360, 288 348
				 C 228 337, 205 250, 250 205 Z"
              fill="#f4b183"
              stroke="#263238"
              stroke-width="5"/>

        <circle cx="302" cy="270" r="34" fill="#c96b5f" stroke="#263238" stroke-width="4"/>
        <circle cx="313" cy="258" r="8" fill="#7f3f3f"/>
    </g>

    <g id="axon" class="structure">
        <path d="M 382 260 C 430 258, 470 260, 515 260"/>
        <path d="M 555 260 L 610 260"/>
        <path d="M 650 260 L 705 260"/>
        <path d="M 745 260 L 800 260"/>
    </g>

    <g id="myelin">
        <path d="M 515 240 C 530 225, 550 225, 565 240 C 582 258, 580 280, 562 292 C 542 305, 518 292, 510 270 C 506 258, 507 248, 515 240 Z"
              fill="#a8dadc"
              stroke="#263238"
              stroke-width="4"/>
        <path d="M 610 240 C 625 225, 645 225, 660 240 C 677 258, 675 280, 657 292 C 637 305, 613 292, 605 270 C 601 258, 602 248, 610 240 Z"
              fill="#a8dadc"
              stroke="#263238"
              stroke-width="4"/>
        <path d="M 705 240 C 720 225, 740 225, 755 240 C 772 258, 770 280, 752 292 C 732 305, 708 292, 700 270 C 696 258, 697 248, 705 240 Z"
              fill="#a8dadc"
              stroke="#263238"
              stroke-width="4"/>
    </g>

    <g id="axon-terminals" class="structure">
        <path d="M 800 260 C 835 252, 865 230, 895 195"/>
        <path d="M 800 260 C 840 260, 875 260, 925 260"/>
        <path d="M 800 260 C 835 270, 865 292, 895 330"/>

        <path d="M 895 195 C 918 172, 940 158, 968 145"/>
        <path d="M 895 195 C 920 198, 940 190, 965 178"/>

        <path d="M 925 260 C 948 247, 965 235, 985 216"/>
        <path d="M 925 260 C 950 260, 970 260, 992 260"/>
        <path d="M 925 260 C 948 275, 965 290, 985 310"/>

        <path d="M 895 330 C 915 350, 938 368, 966 385"/>
        <path d="M 895 330 C 920 326, 945 332, 970 345"/>
    </g>

    <g id="signal-direction" class="thin">
        <path d="M 435 220 C 540 190, 690 190, 835 220" marker-end="url(#arrow)"/>
    </g>

    <g id="labels">
        <text x="55" y="70" class="label">Dendrites</text>
        <text x="240" y="390" class="label">Soma / cell body</text>
        <text x="255" y="278" class="small-label">Nucleus</text>
        <text x="385" y="245" class="label">Axon hillock</text>
        <text x="590" y="220" class="label">Myelin sheath</text>
        <text x="628" y="330" class="small-label">Node of Ranvier</text>
        <text x="815" y="140" class="label">Axon terminals</text>
        <text x="555" y="175" class="small-label">Direction of action potential</text>
    </g>
</svg>